<?xml version="1.0" encoding="UTF-8" standalone="no"?>
<!-- Generator: Adobe Illustrator 13.0.0, SVG Export Plug-In . SVG Version: 6.00 Build 14948)  -->

<svg
   xmlns:dc="http://purl.org/dc/elements/1.1/"
   xmlns:cc="http://creativecommons.org/ns#"
   xmlns:rdf="http://www.w3.org/1999/02/22-rdf-syntax-ns#"
   xmlns:svg="http://www.w3.org/2000/svg"
   xmlns="http://www.w3.org/2000/svg"
   xmlns:sodipodi="http://sodipodi.sourceforge.net/DTD/sodipodi-0.dtd"
   xmlns:inkscape="http://www.inkscape.org/namespaces/inkscape"
   version="1.1"
   id="Layer_1"
   x="0px"
   y="0px"
   width="1000"
   height="1859.8831"
   viewBox="0 0 1000 1859.8831"
   xml:space="preserve"
   inkscape:version="0.92.2 (5c3e80d, 2017-08-06)"
   sodipodi:docname="Java.svg"><metadata
     id="metadata33"><rdf:RDF><cc:Work
         rdf:about=""><dc:format>image/svg+xml</dc:format><dc:type
           rdf:resource="http://purl.org/dc/dcmitype/StillImage" /><dc:title></dc:title></cc:Work></rdf:RDF></metadata><defs
     id="defs31" /><sodipodi:namedview
     pagecolor="#ffffff"
     bordercolor="#666666"
     borderopacity="1"
     objecttolerance="10"
     gridtolerance="10"
     guidetolerance="10"
     inkscape:pageopacity="0"
     inkscape:pageshadow="2"
     inkscape:window-width="1366"
     inkscape:window-height="705"
     id="namedview29"
     showgrid="false"
     inkscape:zoom="0.21454545"
     inkscape:cx="959.81501"
     inkscape:cy="796.51235"
     inkscape:window-x="-8"
     inkscape:window-y="-8"
     inkscape:window-maximized="1"
     inkscape:current-layer="Layer_1" /><path
     style="fill:#e11f21;fill-opacity:1;stroke-width:3.43845844"
     d="m 957.87545,1466.6608 h -7.00758 v -3.9198 h 18.86338 v 3.9198 h -6.95944 v 19.5579 h -4.89636 z m 37.62361,1.0212 h -0.11003 l -6.94225,18.5402 h -3.17714 l -6.89754,-18.5402 h -0.086 v 18.5402 h -4.61441 v -23.4778 h 6.79096 l 6.39553,16.6249 6.3749,-16.6249 H 1000 v 23.4778 h -4.50438 v -18.5402 z"
     id="path3"
     inkscape:connector-curvature="0" /><path
     style="fill:#0b6fb6;fill-opacity:1;stroke-width:3.43845844"
     d="m 330.62154,986.57982 c 0,0 -48.75047,28.35008 34.69404,37.94338 101.09068,11.5326 152.75696,9.8787 264.15957,-11.206 0,0 29.28879,18.3648 70.19269,34.2712 -249.73523,107.0323 -565.20004,-6.1996 -369.0463,-61.00858"
     id="path5"
     inkscape:connector-curvature="0" /><path
     style="fill:#0b6fb6;fill-opacity:1;stroke-width:3.43845844"
     d="m 300.10522,846.90964 c 0,0 -54.67837,40.47409 28.82803,49.1115 107.98823,11.1406 193.26888,12.0518 340.8372,-16.36363 0,0 20.41069,20.69265 52.50526,32.00861 C 420.33092,999.95886 84.018733,918.629 300.10522,846.90964"
     id="path7"
     inkscape:connector-curvature="0" /><path
     style="fill:#e11f21;fill-opacity:1;stroke-width:3.43845844"
     d="m 557.36724,609.98266 c 61.53465,70.84599 -16.16763,134.59845 -16.16763,134.59845 0,0 156.24699,-80.65936 84.4898,-181.66407 -67.01899,-94.19314 -118.41363,-140.99399 159.81611,-302.3574 0,0 -436.72892,109.07477 -228.13828,349.42302"
     id="path9"
     inkscape:connector-curvature="0" /><path
     style="fill:#0b6fb6;fill-opacity:1;stroke-width:3.43845844"
     d="m 887.66212,1089.8883 c 0,0 36.07631,29.7254 -39.73138,52.7219 -144.1505,43.6684 -599.96975,56.8549 -726.59442,1.7398 -45.518311,-19.8021 39.84142,-47.2822 66.69234,-53.0485 28.00281,-6.0723 44.00539,-4.9411 44.00539,-4.9411 -50.62098,-35.6602 -327.193388,70.0208 -140.485093,100.2861 509.180683,82.5746 928.187843,-37.1835 796.113163,-96.7582"
     id="path11"
     inkscape:connector-curvature="0" /><path
     style="fill:#0b6fb6;fill-opacity:1;stroke-width:3.43845844"
     d="m 354.06495,702.19523 c 0,0 -231.8587,55.07036 -82.10695,75.06843 63.22981,8.46548 189.27682,6.55026 306.68642,-3.28717 95.95362,-8.09413 192.30267,-25.30361 192.30267,-25.30361 0,0 -33.83443,14.48966 -58.31282,31.20401 -235.44844,61.9232 -690.291167,33.11579 -559.34779,-30.22405 110.73899,-53.52992 200.77847,-47.45761 200.77847,-47.45761"
     id="path13"
     inkscape:connector-curvature="0" /><path
     style="fill:#0b6fb6;fill-opacity:1;stroke-width:3.43845844"
     d="m 769.9912,934.68317 c 239.3442,-124.37249 128.68087,-243.8933 51.43934,-227.791 -18.93216,3.94047 -27.37357,7.35486 -27.37357,7.35486 0,0 7.02821,-11.00994 20.45195,-15.77565 152.80853,-53.72247 270.32818,158.44761 -49.32813,242.4801 0,0.003 3.70322,-3.3078 4.81041,-6.26831"
     id="path15"
     inkscape:connector-curvature="0" /><path
     style="fill:#e11f21;fill-opacity:1;stroke-width:3.43845844"
     d="m 625.68941,1.4335938e-4 c 0,0 132.55257,132.59729664062 -125.72036,336.49440664062 -207.10867,163.56059 -47.22722,256.81846 -0.086,363.36941 C 378.99033,590.78918 290.27123,494.77023 349.79094,405.40469 437.15186,274.22404 679.17119,210.62294 625.68941,1.4335938e-4"
     id="path17"
     inkscape:connector-curvature="0" /><path
     style="fill:#0b6fb6;fill-opacity:1;stroke-width:3.43845844"
     d="m 377.584,1271.7036 c 229.7406,14.7063 582.53332,-8.1594 590.88877,-116.8663 0,0 -16.06104,41.2099 -189.86823,73.9372 -196.08841,36.9015 -437.93583,32.5931 -581.378,8.9434 0.003,0 29.36443,24.303 180.35746,33.9857"
     id="path19"
     inkscape:connector-curvature="0" /><path
     style="fill:#e11f21;fill-opacity:1;stroke-width:3.43845844"
     d="m 339.93288,1687.0763 c -21.6726,18.7981 -44.56242,29.3507 -65.10377,29.3507 -29.31974,0 -45.16071,-17.5809 -45.16071,-45.7797 0,-30.5025 16.97223,-52.8044 85.06402,-52.8044 h 25.19702 v 69.2334 m 59.80511,67.4729 v -208.8589 c 0,-53.3545 -30.43036,-88.5609 -103.80018,-88.5609 -42.83288,0 -80.35334,10.5767 -110.84903,24.0658 l 8.80246,36.9703 c 24.01075,-8.8128 55.09098,-17.017 85.59698,-17.017 42.26553,0 60.4481,17.017 60.4481,52.1993 v 26.397 h -21.09494 c -102.68956,0 -149.01248,39.8621 -149.01248,99.6947 0,51.6353 30.52664,80.986 88.00391,80.986 36.94624,0 64.52611,-15.253 90.30767,-37.5755 l 4.67975,31.7026 h 46.91776 z"
     id="path21"
     inkscape:connector-curvature="0" /><path
     style="fill:#e11f21;fill-opacity:1;stroke-width:3.43845844"
     d="M 599.31643,1754.5492 H 524.72939 L 434.965,1462.4177 h 65.13472 l 55.69958,179.4876 12.38189,53.9803 c 28.17817,-78.0461 48.10748,-157.2269 58.07557,-233.4679 h 63.36047 c -16.97567,96.1978 -47.52293,201.786 -90.3008,292.1315"
     id="path23"
     inkscape:connector-curvature="0" /><path
     style="fill:#e11f21;fill-opacity:1;stroke-width:3.43845844"
     d="m 885.44088,1687.0763 c -21.71387,18.7981 -44.64495,29.3507 -65.1863,29.3507 -29.26816,0 -45.15039,-17.5809 -45.15039,-45.7797 0,-30.5025 17.01349,-52.8044 85.0984,-52.8044 h 25.23829 v 69.2334 m 59.79479,67.4729 v -208.8589 c 0,-53.3545 -30.506,-88.5609 -103.78987,-88.5609 -42.86382,0 -80.39803,10.5767 -110.87997,24.0658 l 8.7887,36.9703 c 24.02107,-8.8128 55.15975,-17.017 85.64169,-17.017 42.23458,0 60.44466,17.017 60.44466,52.1993 v 26.397 h -21.12933 c -102.72051,0 -149.02279,39.8621 -149.02279,99.6947 0,51.6353 30.50257,80.986 87.96952,80.986 36.96687,0 64.53643,-15.253 90.36269,-37.5755 l 4.69694,31.7026 h 46.91776 z"
     id="path25"
     inkscape:connector-curvature="0" /><path
     style="fill:#e11f21;fill-opacity:1;stroke-width:3.43845844"
     d="m 104.25406,1804.1592 c -17.047876,24.891 -44.583052,44.5831 -74.728017,55.7237 L 0,1825.1373 c 22.944833,-11.7733 42.623131,-30.788 51.765992,-48.4995 7.908455,-15.7516 11.181867,-36.0522 11.181867,-84.5998 v -333.5133 h 63.535831 v 328.9436 c -0.003,64.9043 -5.19207,91.1226 -22.22963,116.6909"
     id="path27"
     inkscape:connector-curvature="0" /></svg>